<?xml version="1.0" standalone="no"?><!DOCTYPE svg PUBLIC "-//W3C//DTD SVG 1.1//EN"
        "http://www.w3.org/Graphics/SVG/1.1/DTD/svg11.dtd">
<svg t="1710133585219" class="icon" viewBox="0 0 1024 1024" version="1.1" xmlns="http://www.w3.org/2000/svg" p-id="9765"
     xmlns:xlink="http://www.w3.org/1999/xlink" width="200" height="200">
    <path d="M703.146667 505.173333v358.4c0 23.893333-20.48 40.96-47.786667 40.96h-58.026667c-23.893333 0-47.786667-17.066667-47.786666-40.96V505.173333c0-23.893333 20.48-40.96 47.786666-40.96h58.026667c27.306667-3.413333 47.786667 17.066667 47.786667 40.96z m-279.893334 71.68c23.893333 0 47.786667 17.066667 47.786667 40.96v242.346667c0 23.893333-20.48 40.96-47.786667 40.96h-58.026666c-23.893333 0-47.786667-17.066667-47.786667-40.96v-242.346667c0-23.893333 20.48-40.96 47.786667-40.96h58.026666z m-232.106666 58.026667c23.893333 0 47.786667 17.066667 47.786666 40.96v187.733333c0 23.893333-20.48 40.96-47.786666 40.96H133.12c-23.893333 0-47.786667-17.066667-47.786667-40.96v-187.733333c0-23.893333 20.48-40.96 47.786667-40.96h58.026667z m699.733333-290.133333c27.306667 0 47.786667 20.48 47.786667 47.786666v467.626667c0 27.306667-20.48 47.786667-47.786667 47.786667h-58.026667c-23.893333 0-47.786667-20.48-47.786666-47.786667V392.533333c0-27.306667 20.48-47.786667 47.786666-47.786666h58.026667zM129.706667 518.826667c-23.893333 0-44.373333-20.48-44.373334-47.786667 0-20.48 20.48-37.546667 40.96-40.96 256-6.826667 494.933333-112.64 672.426667-293.546667h-10.24c-23.893333 0-44.373333-20.48-44.373333-44.373333 0-23.893333 20.48-44.373333 44.373333-44.373333h112.64c20.48 0 34.133333 17.066667 34.133333 34.133333v112.64c0 23.893333-20.48 44.373333-44.373333 44.373333-20.48 0-37.546667-13.653333-40.96-34.133333-187.733333 194.56-443.733333 307.2-720.213333 314.026667z"
          fill="#F0B90B" p-id="9766"></path>
</svg>
