<?xml version="1.0" standalone="no"?><!DOCTYPE svg PUBLIC "-//W3C//DTD SVG 1.1//EN"
        "http://www.w3.org/Graphics/SVG/1.1/DTD/svg11.dtd">
<svg t="1709137420931" class="icon" viewBox="0 0 1024 1024" version="1.1" xmlns="http://www.w3.org/2000/svg" p-id="5201"
     xmlns:xlink="http://www.w3.org/1999/xlink" width="200" height="200">
    <path d="M896 385.024V192c0-70.656-57.344-128-128.512-128H256.512C185.856 64 128 121.344 128 192.512v639.488c0 71.168 57.344 128.512 128.512 128.512h125.44V896H256.512c-35.84 0-64.512-28.672-64.512-64.512V192.512c0-35.328 29.184-64.512 64.512-64.512h510.976c35.84 0 64.512 28.672 64.512 64v193.536H896z m-102.912 107.52h90.624l-366.08 366.08-45.056-45.056 63.488 7.68-7.168 59.392c-1.536 11.776 1.024 13.824 12.288 12.288l59.392-7.168 7.68 63.488-45.056-45.056 366.08-366.08v90.624l-136.192-136.192z m45.568-45.568l135.68 135.68-366.08 366.08-59.392 7.168c-52.736 6.144-90.112-30.72-83.456-83.456l7.168-59.392 366.08-366.08z m-486.4-126.976h320c17.92 0 32.256-14.336 32.256-32.256s-14.336-32.256-32.256-32.256H352.256c-17.92 0-32.256 14.336-32.256 32.256s14.336 32.256 32.256 32.256z m0 192h256c17.92 0 32.256-14.336 32.256-32.256s-14.336-32.256-32.256-32.256h-256c-17.92 0-32.256 14.336-32.256 32.256s14.336 32.256 32.256 32.256z m0 192h64c17.92 0 32.256-14.336 32.256-32.256s-14.336-32.256-32.256-32.256H352.256c-17.92 0-32.256 14.336-32.256 32.256s14.336 32.256 32.256 32.256z"
          p-id="5202"></path>
</svg>
