<svg width="1024" height="1024" xmlns="http://www.w3.org/2000/svg" p-id="5407" version="1.1" class="icon"
     t="1711924415355">

    <g>
        <title>Layer 1</title>
        <path stroke="null" id="svg_1" class="selected" data-spm-anchor-id="a313x.search_index.0.i0.2bc33a81rxk1hB"
              p-id="5408" fill="#ffffff"
              d="m893.75835,234.20421l-133.43195,-64.33327l-419.73881,214.92075l0,138.00676l-73.29227,-35.45477l0,-138.00676l420.12005,-214.92075l-141.05664,-68.33623a89.49472,89.49472 0 0 0 -68.71746,0l-347.49493,168.12427c-27.73478,13.4385 -50.13229,51.3713 -50.13229,84.34806l0.85778,394.10081c0,33.35799 23.15998,71.29078 51.276,84.44336l346.54185,161.26205a89.87596,89.87596 0 0 0 66.71597,0l346.44654,-161.26205c28.11602,-13.15258 51.18068,-51.08538 51.276,-84.44336l0.85777,-394.10081c0,-32.97676 -22.58812,-70.90956 -50.2276,-84.34806zm-171.55537,555.9347l-75.29374,30.40343l0,-77.48584l75.29374,-30.40342l0,77.48584zm35.07354,-206.72422q-45.55749,48.60736 -42.03107,83.10905l0,15.15406l-63.38017,25.63799l0,-21.25381c-1.23902,-36.02663 14.01036,-71.86263 45.46217,-107.31741q43.74662,-53.46809 42.03106,-85.01522q-5.33728,-37.64687 -43.74661,-25.82861q-50.89477,19.06171 -63.09426,91.68681l-70.05178,13.15259q24.5896,-132.7648 143.62997,-177.17858q101.50359,-35.26415 110.36729,57.18512q3.81235,59.56784 -59.1866,130.66801z"/>
    </g>
</svg>
