<?xml version="1.0" standalone="no"?><!DOCTYPE svg PUBLIC "-//W3C//DTD SVG 1.1//EN" "http://www.w3.org/Graphics/SVG/1.1/DTD/svg11.dtd"><svg t="1711924415355" class="icon" viewBox="0 0 1024 1024" version="1.1" xmlns="http://www.w3.org/2000/svg" p-id="5407" xmlns:xlink="http://www.w3.org/1999/xlink" width="200" height="200"><path d="M943.670622 197.873188l-150.883695-72.747495-474.636994 243.030522v156.05685l-82.878258-40.091953V328.064262L710.339765 85.033739 550.834145 7.759733a101.19985 101.19985 0 0 0-77.705103 0L80.184792 197.873188C48.822538 213.069332 23.495632 255.963411 23.495632 293.253238l0.969967 445.64577c0 37.720924 26.189098 80.615003 57.982448 95.487824l391.86651 182.353722a101.630946 101.630946 0 0 0 75.441847 0l391.758736-182.353722c31.79335-14.872821 57.874674-57.7669 57.982449-95.487824l0.969966-445.64577c0-37.289827-25.542454-80.183906-56.796933-95.38005z m-193.993322 628.646137l-85.141513 34.379928v-87.620318l85.141513-34.379927zM789.338157 592.757372q-51.516004 54.964775-47.528364 93.978987v17.136077L670.140038 732.86366v-24.033617c-1.401063-40.738598 15.842788-81.261647 51.40823-121.3536q49.468297-60.461252 47.528364-96.134469-6.035348-42.570757-49.468297-29.206772-57.551352 21.554814-71.346433 103.678653l-79.213939 14.872822q27.805709-150.129276 162.41552-200.351992 114.779382-39.876405 124.80237 64.66444 4.310963 67.358792-66.927696 147.758247z" fill="#ffffff" p-id="5408" data-spm-anchor-id="a313x.search_index.0.i0.2bc33a81rxk1hB" class="selected"></path></svg>