<?xml version="1.0" standalone="no"?><!DOCTYPE svg PUBLIC "-//W3C//DTD SVG 1.1//EN" "http://www.w3.org/Graphics/SVG/1.1/DTD/svg11.dtd"><svg t="1709141134867" class="icon" viewBox="0 0 1024 1024" version="1.1" xmlns="http://www.w3.org/2000/svg" p-id="12709" xmlns:xlink="http://www.w3.org/1999/xlink" width="200" height="200"><path d="M922.2 350L523.6 120.8c-7.6-4.4-17-4.4-24.6 0L100.5 350c-11.9 6.8-27.1 2.7-33.9-9.3-6.8-12-2.7-27.3 9.2-34.1L486.7 70.3c15.3-8.8 34-8.8 49.2 0l410.9 236.3c11.9 6.8 16 22.1 9.2 34.1-6.7 12-21.9 16.1-33.8 9.3z m-51 609.3H153c-27.6 0-50-22.4-50-50V408.8c0-13.8 11.2-25 25-25s25 11.2 25 25v475.5c0 13.8 11.2 25 25 25h668.1c13.8 0 25-11.2 25-25V408.8c0-13.8 11.2-25 25-25s25 11.2 25 25v500.5c0.1 27.6-22.3 50-49.9 50z" p-id="12710"></path><path d="M678.3 856.7H344c-13.8 0-25-11.2-25-25s11.2-25 25-25h334.3c13.8 0 25 11.2 25 25s-11.2 25-25 25z m0-316H344c-13.8 0-25-11.2-25-25s11.2-25 25-25h334.3c13.8 0 25 11.2 25 25s-11.2 25-25 25z m0 105.4H344c-13.8 0-25-11.2-25-25s11.2-25 25-25h334.3c13.8 0 25 11.2 25 25s-11.2 25-25 25z m0 105.3H344c-13.8 0-25-11.2-25-25s11.2-25 25-25h334.3c13.8 0 25 11.2 25 25s-11.2 25-25 25z" p-id="12711"></path></svg>