<?xml version="1.0" standalone="no"?><!DOCTYPE svg PUBLIC "-//W3C//DTD SVG 1.1//EN" "http://www.w3.org/Graphics/SVG/1.1/DTD/svg11.dtd"><svg t="1709970586981" class="icon" viewBox="0 0 1025 1024" version="1.1" xmlns="http://www.w3.org/2000/svg" p-id="11072" xmlns:xlink="http://www.w3.org/1999/xlink" width="200.1953125" height="200"><path d="M511.576 172.812c-25.601 0-44.8 19.198-44.8 38.4v300.79c0 12.799 6.402 19.2 6.402 25.596L645.97 748.795c6.401 12.797 19.199 19.2 32.002 19.2 6.397 0 19.2 0 25.597-6.403 19.198-12.797 19.198-38.397 6.4-57.597L556.377 499.197V211.21c0-19.2-19.2-38.398-44.8-38.398z m0 0" p-id="11073" fill="#ffffff"></path><path d="M150.785 149.276C228.48 71.581 328.673 21.185 439.36 5.286c135.307-19.418 270.14 15.05 379.565 97.013 109.448 81.987 180.424 201.68 199.863 337.01 40.133 279.466-154.613 539.372-433.935 579.528-117.128 16.807-237.23-7.734-338.198-69.036-17.27-10.5-22.754-32.999-12.28-50.24 10.571-17.139 32.964-22.778 50.235-12.28 86.489 52.57 189.424 73.588 289.852 59.155 239.37-34.33 406.294-257.161 371.934-496.729-16.65-115.99-77.49-218.568-171.319-288.818-93.807-70.28-209.36-99.782-325.321-83.107-239.634 34.34-406.478 257.197-372.066 496.71 9.019 62.7 30.791 121.294 64.795 174.116 10.909 17.015 5.947 39.715-10.938 50.547C114.56 810.092 91.908 805.18 81 788.217 41.308 726.45 15.864 658.091 5.292 584.887c-19.42-135.312 15.025-270.18 97.066-379.628a513.522 513.522 0 0 1 48.427-55.983z m0 0" p-id="11074" fill="#ffffff"></path></svg>