<?xml version="1.0" standalone="no"?><!DOCTYPE svg PUBLIC "-//W3C//DTD SVG 1.1//EN"
        "http://www.w3.org/Graphics/SVG/1.1/DTD/svg11.dtd">
<svg t="1709626415150" class="icon" viewBox="0 0 1024 1024" version="1.1" xmlns="http://www.w3.org/2000/svg"
     p-id="13639" xmlns:xlink="http://www.w3.org/1999/xlink" width="200" height="200">
    <path d="M794.717091 330.24c-39.098182-55.994182-99.374545-51.2-134.749091 10.752L579.956364 447.301818c-0.279273-0.465455-62.370909-90.112-186.321455-268.893091-39.237818-55.761455-99.421091-50.781091-134.842182 11.077818L15.034182 668.578909a20.386909 20.386909 0 0 0 18.152727 29.602909h954.135273a20.386909 20.386909 0 0 0 17.268363-31.138909l-209.92-336.802909z"
          fill="#60687B" p-id="13640"></path>
    <path d="M0 814.545455m20.386909 0l983.226182 0q20.386909 0 20.386909 20.386909l0 29.044363q0 20.386909-20.386909 20.386909l-983.226182 0q-20.386909 0-20.386909-20.386909l0-29.044363q0-20.386909 20.386909-20.386909Z"
          fill="#8C90A8" opacity=".6" p-id="13641"></path>
</svg>
