<svg width="1129" height="1024" xmlns="http://www.w3.org/2000/svg" p-id="4420" version="1.1" class="icon"
     t="1711994752618">
    <g>
        <title>Layer 1</title>
        <g stroke-width="99" stroke="null" id="svg_4">
            <path stroke="null" id="svg_1" p-id="4421" fill="#ffffff"
                  d="m347.4455,608.84933a22.52631,21.41072 0 0 1 -17.34526,-34.89948l86.72629,-101.27271a22.52631,21.41072 0 1 1 34.91578,26.9775l-86.72629,101.48683a22.52631,21.41072 0 0 1 -17.57053,7.70786l0.00001,0zm272.79362,-45.60484a22.52631,21.41072 0 0 1 -11.26316,-2.9975l-119.16418,-65.73092a22.52631,21.41072 0 0 1 -8.10947,-29.33269a22.52631,21.41072 0 0 1 30.63578,-7.70786l119.16419,65.73092a22.52631,21.41072 0 0 1 -11.26316,40.03805zm71.18313,-10.91946a22.52631,21.41072 0 0 1 -16.4442,-36.61234l96.63787,-92.92254a22.52631,21.41072 0 0 1 31.76209,0a22.52631,21.41072 0 0 1 0,30.40323l-96.63787,92.92254a22.52631,21.41072 0 0 1 -15.31789,6.20911z"/>
            <path stroke="null" id="svg_2" p-id="4422" fill="#ffffff"
                  d="m462.10442,509.50357a59.91999,56.95252 0 1 1 59.91999,-57.38073l0,3.21161a59.69473,56.73842 0 0 1 -9.46105,31.25965a56.7663,53.95502 0 0 1 -50.45894,22.90947zm0,-71.0836a14.86736,14.13107 0 1 0 0,28.26216a20.04841,19.05554 0 0 0 12.38946,-2.99751a15.09263,14.34519 0 0 0 2.4779,-8.7784l0,-2.35518a15.09263,14.34519 0 0 0 -14.86736,-14.13107zm59.91999,14.13107zm-207.46732,215.60598a59.91999,56.95252 0 1 1 59.91999,-56.95252a60.14525,57.16663 0 0 1 -59.91999,56.95252zm0,-71.0836a14.86736,14.13107 0 1 0 14.86736,14.13107a15.09263,14.34519 0 0 0 -14.86736,-14.13107zm339.92202,19.48375a59.91999,56.95252 0 0 1 0,-113.90503a56.7663,53.95502 0 0 1 50.45894,22.90947a60.59577,57.59484 0 0 1 9.68631,31.25965l0,3.21161a60.14525,57.16663 0 0 1 -60.14525,56.5243zm0,-71.0836a14.86736,14.13107 0 1 0 14.86737,14.13108a9.23579,8.7784 0 0 1 0,-2.35518a15.54316,14.7734 0 0 0 -2.70316,-8.7784a19.59789,18.62733 0 0 0 -12.16422,-2.99751l0.00001,0.00001zm159.71154,-76.86449a59.91999,56.95252 0 1 1 59.91999,-56.95252a59.91999,56.95252 0 0 1 -59.91999,56.95252zm0,-71.0836a14.86736,14.13107 0 1 0 14.86737,14.13107a14.86736,14.13107 0 0 0 -14.86737,-14.13107z"/>
            <path stroke="null" id="svg_3" p-id="4423" fill="#ffffff"
                  d="m682.18647,896.82354a22.52631,21.41072 0 0 1 -10.13683,-2.35518l-202.7368,-98.48932l-283.83151,65.51681a22.52631,21.41072 0 0 1 -19.14736,-3.85393a22.52631,21.41072 0 0 1 -8.78526,-16.91448l0,-587.72433a22.52631,21.41072 0 0 1 14.86736,-20.12609l303.4294,-104.48432a22.52631,21.41072 0 0 1 20.27369,2.56929l184.94101,118.61541l241.70731,-61.87699a22.52631,21.41072 0 0 1 19.37262,3.42572a22.52631,21.41072 0 0 1 9.01053,16.48625l20.27369,582.15754a22.52631,21.41072 0 0 1 -15.54316,21.41072l-266.71151,83.50181a23.87789,22.69536 0 0 1 -6.98316,2.14108l-0.00002,0.00001zm-209.9452,-146.02113a22.52631,21.41072 0 0 1 10.13683,2.35518l200.93469,98.06111l241.70731,-75.15163l-19.37263,-540.19253l-223.68626,57.59484a22.52631,21.41072 0 0 1 -18.47157,-2.78339l-184.03996,-118.18719l-277.52414,95.49182l0,545.5452l265.13467,-62.09109a22.52631,21.41072 0 0 1 5.18105,-0.64233l0.00001,0.00001z"/>
        </g>
    </g>

</svg>
