<?xml version="1.0" standalone="no"?><!DOCTYPE svg PUBLIC "-//W3C//DTD SVG 1.1//EN" "http://www.w3.org/Graphics/SVG/1.1/DTD/svg11.dtd"><svg t="1709072385196" class="icon" viewBox="0 0 1024 1024" version="1.1" xmlns="http://www.w3.org/2000/svg" p-id="1388" xmlns:xlink="http://www.w3.org/1999/xlink" width="200" height="200"><path d="M605.090909 93.090909a93.090909 93.090909 0 0 1 93.090909 93.090909l-0.023273 186.181818h-46.545454L651.636364 186.181818a46.545455 46.545455 0 0 0-46.545455-46.545454l-325.864727-0.023273 208.802909 52.224a93.090909 93.090909 0 0 1 70.516364 90.298182V791.272727L605.090909 791.272727a46.545455 46.545455 0 0 0 46.545455-46.545454l-0.023273-186.181818h46.545454L698.181818 744.727273a93.090909 93.090909 0 0 1-93.090909 93.090909l-46.545454-0.023273v-2.746182l-0.116364 4.561455a93.090909 93.090909 0 0 1-115.549091 85.643636l-279.272727-69.818182A93.090909 93.090909 0 0 1 93.090909 765.137455V186.181818a93.090909 93.090909 0 0 1 93.090909-93.090909h418.909091zM186.181818 156.392727a46.545455 46.545455 0 0 0-46.545454 46.545455v554.123636a46.545455 46.545455 0 0 0 32.651636 44.427637l279.272727 87.272727A46.545455 46.545455 0 0 0 512 844.311273V290.210909a46.545455 46.545455 0 0 0-32.651636-44.427636l-279.272728-87.272728A46.545455 46.545455 0 0 0 186.181818 156.416z m607.883637 151.156364l1.978181 1.768727 131.653819 131.653818a46.545455 46.545455 0 0 1 0 65.815273l-130.792728 130.839273a23.272727 23.272727 0 1 1-33.745454-32.046546l114.734545-114.734545H605.090909a23.272727 23.272727 0 0 1 0-46.545455h260.119273l-102.074182-102.074181a23.272727 23.272727 0 0 1 30.929455-34.676364z" fill="#ffffff" p-id="1389"></path></svg>
