<?xml version="1.0" standalone="no"?><!DOCTYPE svg PUBLIC "-//W3C//DTD SVG 1.1//EN"
        "http://www.w3.org/Graphics/SVG/1.1/DTD/svg11.dtd">
<svg t="1711998539088" class="icon" viewBox="0 0 1024 1024" version="1.1" xmlns="http://www.w3.org/2000/svg"
     p-id="24735" id="mx_n_1711998539092" xmlns:xlink="http://www.w3.org/1999/xlink" width="200" height="200">
    <path d="M512 512m-512 0a512 512 0 1 0 1024 0 512 512 0 1 0-1024 0Z" fill="#FFFFFF" p-id="24736"></path>
    <path d="M493.632 547.096l148.704-334c4.232-9.496 3.752-20.216-1.28-28.584-8.6-16.088-28.176-21.304-44.264-12.704L231.216 373.336a35.008 35.008 0 0 0-13.976 15.672c-7.16 16.08-0.184 35.824 16.624 43.304l259.768 114.784z"
          fill="#FFB900" p-id="24737"></path>
    <path d="M500.448 563.264l-271.144-120.72a44.72 44.72 0 0 1-22.704-59.152c3.904-8.768 10.736-16.24 19.104-21.264L591.28 160.6c10.48-5.84 22.584-7.464 34.2-4.04 11.608 3.416 20.544 10.896 26.384 21.376 6.976 11.864 7.296 26.896 1.44 40.048l-152.856 345.28z m112.424-384.296c-3.576 0.16-6.416 0.64-9.912 2.592L237.792 384.144c-3.496 1.952-6.912 5.68-8.536 9.336a19.808 19.808 0 0 0 10.136 26.408l248.48 110.64 143.824-323.04c2.608-5.84 2.288-12.992-0.8-17.864a20.048 20.048 0 0 0-12.256-9.84c-1.784 0.08-3.976-0.896-5.76-0.816z"
          fill="#333333" p-id="24738"></path>
    <path d="M522.272 482.784l-148.704 333.992c-4.24 9.496-3.76 20.224 1.28 28.592 8.6 16.08 28.168 21.296 44.256 12.696l365.576-201.52a35.008 35.008 0 0 0 13.984-15.68c7.16-16.08 0.184-35.816-16.624-43.296L522.272 482.784z"
          fill="#FF7400" p-id="24739"></path>
    <path d="M402.688 875.28c-4.304-0.168-8.608-0.336-12.264-1.96-11.616-3.416-20.544-10.896-26.384-21.384-6.656-12.592-7.296-26.888-1.44-40.04l153.584-344.96 271.144 120.72c10.96 4.88 19.24 13.824 24.024 24.712 4.464 11.616 3.56 23.472-1.32 34.44-3.904 8.768-10.736 16.24-19.104 21.264L424.624 869.28c-6.992 3.896-14.056 6-21.936 6z m125.336-375.92l-143.824 323.024c-2.6 5.848-2.28 13 0.8 17.872a20.048 20.048 0 0 0 12.264 9.84c5.44 1.544 10.8 1.304 15.68-1.784l365.896-202.256c3.496-1.952 6.912-5.68 8.536-9.336 2.28-5.12 2.04-10.48 0.744-15.44-2.032-5.28-5.76-8.688-10.88-10.96L528.024 499.36z"
          fill="#333333" p-id="24740"></path>
</svg>
