<?xml version="1.0" standalone="no"?><!DOCTYPE svg PUBLIC "-//W3C//DTD SVG 1.1//EN" "http://www.w3.org/Graphics/SVG/1.1/DTD/svg11.dtd"><svg t="1709141170788" class="icon" viewBox="0 0 1024 1024" version="1.1" xmlns="http://www.w3.org/2000/svg" p-id="15525" xmlns:xlink="http://www.w3.org/1999/xlink" width="200" height="200"><path d="M624.02369443 791.32705507H323.32102154c-13.42331851 0-24.30434186-10.88102332-24.30434184-24.30434185s10.88102332-24.30434186 24.30434184-24.30434183h300.70267289c13.42331851 0 24.30434186 10.88102332 24.30434186 24.30434183s-10.9013617 24.30434186-24.30434186 24.30434185zM565.30684515 644.58577778H323.32102154c-13.42331851 0-24.30434186-10.88102332-24.30434184-24.30434182s10.88102332-24.30434186 24.30434184-24.30434185h241.98582361c13.42331851 0 24.30434186 10.88102332 24.30434185 24.30434185s-10.88102332 24.30434186-24.30434185 24.30434182zM521.27429278 497.84450049h-197.95327124c-13.42331851 0-24.30434186-10.88102332-24.30434184-24.30434186s10.88102332-24.30434186 24.30434184-24.30434181h197.95327124c13.42331851 0 24.30434186 10.88102332 24.30434184 24.30434181s-10.88102332 24.30434186-24.30434184 24.30434186z" fill="#000000" p-id="15526"></path><path d="M748.35209748 902.82195211H277.96647571c-48.62902205 0-88.18713492-39.5581129-88.1871349-88.1871349V209.6702582c0-48.60868367 39.5581129-88.16679657 88.1871349-88.16679655h351.26383922c6.18286187 0 12.14200174 2.35924991 16.63677961 6.5896291l182.98423726 172.1235523a24.32468021 24.32468021 0 0 1 7.64722388 17.71471274V814.63481721c0.02033837 48.62902205-39.5377745 88.18713492-88.1464582 88.1871349zM277.96647571 170.11214531c-21.82306175 0-39.57845123 17.73505111-39.57845125 39.55811289V814.63481721c0 21.82306175 17.75538946 39.57845123 39.57845125 39.57845124h470.38562177c21.82306175 0 39.5581129-17.75538946 39.55811288-39.57845124V328.42595027l-168.29994034-158.31380496H277.96647571z" fill="#000000" p-id="15527"></path><path d="M812.2145522 342.21535929h-182.98423727c-13.42331851 0-24.30434186-10.88102332-24.30434181-24.30434185v-172.12355229c0-13.42331851 10.88102332-24.30434186 24.30434181-24.30434184s24.30434186 10.88102332 24.30434183 24.30434184v147.81921044h158.67989544c13.42331851 0 24.30434186 10.88102332 24.30434184 24.30434185s-10.88102332 24.30434186-24.30434184 24.30434185z" fill="#000000" p-id="15528"></path></svg>