<?xml version="1.0" standalone="no"?><!DOCTYPE svg PUBLIC "-//W3C//DTD SVG 1.1//EN" "http://www.w3.org/Graphics/SVG/1.1/DTD/svg11.dtd"><svg t="1709069226576" class="icon" viewBox="0 0 1024 1024" version="1.1" xmlns="http://www.w3.org/2000/svg" p-id="3089" xmlns:xlink="http://www.w3.org/1999/xlink" width="200" height="200"><path d="M727.04 491.52H296.96c-11.264 0-20.48-9.216-20.48-20.48s9.216-20.48 20.48-20.48h430.08c11.264 0 20.48 9.216 20.48 20.48s-9.216 20.48-20.48 20.48zM478.208 863.232l-75.776 66.56c-4.096 3.072-9.216 3.072-13.312 0l-75.776-66.56c-18.432-17.408-48.128-17.408-68.608 0l-64.512 56.32c-10.24-137.216-15.36-272.384-15.36-402.432 0-137.216 5.12-264.192 16.384-389.12 1.024-15.36 13.312-26.624 28.672-28.672C330.752 94.208 424.96 92.16 512 92.16c95.232 0 194.56 3.072 303.104 8.192 15.36 1.024 27.648 12.288 28.672 28.672C855.04 250.88 860.16 380.928 860.16 517.12c0 11.264 9.216 20.48 20.48 20.48s20.48-9.216 20.48-20.48c0-137.216-5.12-268.288-16.384-392.192-3.072-35.84-31.744-64.512-67.584-65.536C707.584 54.272 608.256 51.2 512 51.2c-88.064 0-182.272 2.048-306.176 7.168-35.84 3.072-64.512 30.72-66.56 65.536C128 249.856 122.88 378.88 122.88 517.12c0 137.216 6.144 280.576 17.408 425.984 0 6.144 3.072 11.264 4.096 14.336 1.024 2.048 2.048 4.096 4.096 5.12 12.288 12.288 30.72 13.312 43.008 2.048l79.872-69.632c4.096-4.096 10.24-4.096 14.336 0l75.776 66.56c10.24 8.192 22.528 12.288 33.792 12.288 12.288 0 24.576-4.096 33.792-12.288l75.776-66.56c8.192-7.168 9.216-20.48 2.048-28.672-7.168-9.216-20.48-10.24-28.672-3.072zM296.96 317.44h184.32c11.264 0 20.48-9.216 20.48-20.48s-9.216-20.48-20.48-20.48H296.96c-11.264 0-20.48 9.216-20.48 20.48s9.216 20.48 20.48 20.48z m0 256c-11.264 0-20.48 9.216-20.48 20.48s9.216 20.48 20.48 20.48h327.68c11.264 0 20.48-9.216 20.48-20.48s-9.216-20.48-20.48-20.48H296.96z m672.768 194.56C953.344 672.768 863.232 609.28 768 625.664c-94.208 16.384-157.696 106.496-141.312 201.728 7.168 39.936 28.672 75.776 58.368 101.376H634.88c-11.264 0-20.48 9.216-20.48 20.48s9.216 20.48 20.48 20.48h104.448c11.264 0 20.48-9.216 20.48-20.48V845.824c0-11.264-9.216-20.48-20.48-20.48s-20.48 9.216-20.48 20.48v58.368c-27.648-20.48-46.08-50.176-52.224-83.968C654.336 747.52 702.464 677.888 775.168 665.6c72.704-12.288 142.336 35.84 154.624 108.544 6.144 35.84-2.048 70.656-22.528 99.328-10.24 14.336-22.528 26.624-36.864 35.84-7.168 4.096-15.36 8.192-23.552 11.264l-4.096 2.048c-3.072 1.024-5.12 2.048-7.168 2.048-11.264 2.048-18.432 13.312-16.384 24.576 2.048 9.216 10.24 16.384 20.48 16.384h4.096c6.144-1.024 10.24-3.072 14.336-5.12l4.096-2.048c9.216-4.096 19.456-9.216 29.696-14.336 19.456-12.288 35.84-28.672 48.128-47.104 26.624-36.864 36.864-82.944 29.696-129.024z" p-id="3090"></path></svg>