<?xml version="1.0" standalone="no"?><!DOCTYPE svg PUBLIC "-//W3C//DTD SVG 1.1//EN" "http://www.w3.org/Graphics/SVG/1.1/DTD/svg11.dtd"><svg t="1709973350154" class="icon" viewBox="0 0 1024 1024" version="1.1" xmlns="http://www.w3.org/2000/svg" p-id="14934" xmlns:xlink="http://www.w3.org/1999/xlink" width="200" height="200"><path d="M468.03447266 63.01162109C240.22460937 85.50195312 62 276.76777344 62 510.76337891c0 67.46572266 15.85546875 130.54658203 40.70478516 186.76845703l365.4421875-209.36953125-0.1125-425.1506836zM150.04355469 776.35566406c84.3328125 116.26611328 219.49013673 184.96933594 363.1930664 184.52021485 143.70380859 0.44912109 278.86113281-68.25410156 363.19394532-184.52021485L513.23662109 566.984375 150.04355469 776.35566406z m0 0" p-id="14935" fill="#ffffff"></path><path d="M614.77402343 139.47382813c31.48417969-17.99121094 24.85019531-62.96835938-8.99560546-69.71484376L565.07363281 63.01074219h-6.74648437v44.97802734c0 26.9859375 31.59667969 44.97714844 56.44687501 31.48417969z m0 182.38359374l175.97460938-101.31152343c22.48857422-13.49384766 24.84931641-44.97802734 4.49736328-60.72011719-4.49736327-4.49736327-11.24472656-8.99560547-15.74208984-11.24384766-11.35722656-8.99560547-26.98681641-8.99560547-40.70478516-2.24912109l-162.36914062 94.45253906c-11.35634766 6.74648437-18.10283203 17.99121094-18.10283203 31.48417969v17.99121094c0 29.2359375 31.59667969 47.22626953 56.44687499 31.59667968zM576.31835938 499.51953125l6.74648437 4.49736328c11.24384766 6.74648437 24.85019531 6.74648437 36.09404297 0l275.26289062-157.53427734c8.77060547-4.38574219 15.29208983-12.25634766 17.87783203-21.70107422a34.52871094 34.52871094 0 0 0-4.27236328-27.7734375c-2.36162109-4.49824219-6.74648437-11.24472656-8.99560547-15.74296874-11.35722656-17.99121094-33.84580078-22.48857422-49.70039061-13.49296876L576.31835938 425.19306641c-11.35722656 6.74736327-18.10371094 17.99121094-18.10371094 31.48417968v11.24472657c0.1125 11.24472656 6.85898438 24.73769531 18.10371093 31.59667968z m309.10781249 112.55537109c-11.46972656 6.40898437-18.55371094 18.44121094-18.55371093 31.48417969s7.19648437 25.18769531 18.55371093 31.48417969l33.84492188 20.24033203 2.25 2.24824219c0-2.24824219 2.24824219-2.24824219 2.24824219-4.49736328 4.49736327-11.24472656 11.24384766-24.73769531 15.85458984-35.98242188 11.24384766-31.48417969-24.85019531-60.71923828-54.19775391-44.97714844z m74.43720704-166.5290039c-4.49736327-26.98681641-31.48417969-40.47978516-56.334375-26.98681641l-178.22285157 103.56152344c-11.58222656 6.40898437-18.66621094 18.43945313-18.66621093 31.48330078 0 13.04296875 7.19648437 25.18769531 18.66621093 31.48417969l15.85458985 8.99560547c11.24384766 6.74648437 24.85019531 6.74648437 36.09404297 0L941.87304688 499.51953125c11.35634766-6.74648437 20.35195312-20.23945313 17.99121093-35.98242188 2.24824219-4.49736327 0-11.24384766 0-17.99121093z m0 0" p-id="14936" fill="#ffffff"></path></svg>