<?xml version="1.0" standalone="no"?><!DOCTYPE svg PUBLIC "-//W3C//DTD SVG 1.1//EN"
        "http://www.w3.org/Graphics/SVG/1.1/DTD/svg11.dtd">
<svg t="1711997105230" class="icon" viewBox="0 0 1024 1024" version="1.1" xmlns="http://www.w3.org/2000/svg"
     p-id="18926" xmlns:xlink="http://www.w3.org/1999/xlink" width="200" height="200">
    <path d="M0 204.8c0-56.32 46.08-102.4 102.4-102.4h768a51.2 51.2 0 0 1 51.2 51.2v51.2H102.4v51.2h870.4a51.2 51.2 0 0 1 51.2 51.2v512a102.4 102.4 0 0 1-102.4 102.4H102.4a102.4 102.4 0 0 1-102.4-102.4V204.8z m844.8 460.8a76.8 76.8 0 1 0 0-153.6 76.8 76.8 0 0 0 0 153.6z"
          p-id="18927" fill="#ffffff"></path>
</svg>
